<svg width="500" height="500" viewBox="0 0 500 500" fill="none" xmlns="http://www.w3.org/2000/svg">
<path d="M369.632 132L369.132 113.5L371.632 105L382.132 99" stroke="#E54E4E" stroke-width="10"/>
<path d="M107 400V299.5V225.5V189.932C107 181.406 108.791 172.975 112.258 165.185V165.185C118.598 150.941 130.169 139.671 144.573 133.703V133.703C152.842 130.278 161.768 128.716 170.709 129.131L194.301 130.229C198.184 130.409 202.048 130.866 205.866 131.596L220.745 134.441C229.41 136.097 237.25 140.66 242.971 147.376V147.376C250.579 156.307 253.948 168.267 253.949 179.999C253.951 194.891 255.003 212.206 255.003 215.5C255.003 220.446 257.132 258.892 257.132 271V325.5V341.589C257.132 357.091 266.111 371.191 280.159 377.748V377.748C284.44 379.747 289.043 380.969 293.752 381.358L301.696 382.014C309.614 382.668 317.584 382.201 325.372 380.627L349.561 375.739C350.81 375.487 352.035 375.128 353.223 374.666V374.666C360.723 371.752 366.074 365.025 367.228 357.061L369.564 340.922C369.942 338.311 370.547 335.729 370.806 333.103C371.901 321.992 370.132 297.438 370.132 291.5C370.132 282.998 370.132 270.547 370.132 260.5V260.5C370.132 240.723 370.132 220.894 370.132 201.117V179.823V153V128.5" stroke="#69CD67" stroke-width="51"/>
<rect x="347.132" y="134" width="19" height="19" rx="9.5" fill="black"/>
<rect x="374.132" y="134" width="19" height="19" rx="9.5" fill="black"/>
</svg>
