<svg width="326" height="49" viewBox="0 0 326 49" fill="none" xmlns="http://www.w3.org/2000/svg">
<path d="M116.44 35.1H107.98V26.58H95.26V35.1H86.56V13.74H90.64V9.48H94.96V5.22H107.86V9.3H112.18V13.56H116.44V35.1ZM107.86 22.2V13.56H103.6V9.48H99.22V13.8H95.14V22.2H107.86ZM149.428 35.1H136.708V31.02H132.448V26.58H128.248V35.1H119.548V5.22H128.008V17.94H132.208V13.74H136.468V9.48H140.788V5.22H149.428V9.36H145.348V13.62H141.088V17.94H136.708V22.14H140.848V26.4H145.168V30.72H149.428V35.1Z" fill="white"/>
<path d="M8 32.5L33.728 9.54274C37.8862 5.83233 43.7696 4.75754 48.9711 6.75812L50.0265 7.16402C52.2836 8.03216 54.2065 9.59511 55.5176 11.6273V11.6273C59.5603 17.8934 68.465 18.6212 73.523 13.1417V13.1417C77.8864 8.41475 85.31 8.16344 89.9471 12.6222L92.3093 14.8936C93.7545 16.2831 94.9 17.9538 95.6753 19.8026L98.0764 25.5282C99.8475 29.7518 103.98 32.5 108.56 32.5V32.5C111.711 32.5 114.721 31.1921 116.871 28.8886L120.5 25L124.62 19.9295C126.203 17.9806 127.963 16.1817 129.876 14.5554L134.043 11.0138C135.989 9.35926 138.284 8.1651 140.756 7.52024L141.017 7.45201C145.756 6.21585 150.799 7.1604 154.769 10.0277L156.411 11.2137C157.13 11.7325 157.735 12.3918 158.191 13.1515V13.1515C158.723 14.0379 159.457 14.7856 160.334 15.3335L161.714 16.1963C162.569 16.7304 163.36 17.3597 164.072 18.0723L164.682 18.6819C165.889 19.8894 167.251 20.9507 168.715 21.8293V21.8293C170.552 22.9313 172.224 24.3144 173.647 25.9153L173.833 26.1244C174.941 27.371 175.909 28.7356 176.719 30.1937V30.1937C177.57 31.7261 178.596 33.1551 179.775 34.4522L183 38" stroke="#69CD67" stroke-width="10" stroke-linecap="round"/>
<path d="M48.44 30.78H44.36V35.1H22.88V31.02H18.56V26.64H27.02V30.78H39.92V22.44H22.88V18.12H18.56V9.48H22.64V5.22H39.86V9.3H44.18V13.62H35.72V9.48H27.14V17.82H44.18V22.14H48.44V30.78ZM81.4283 35.1H72.9683V31.02H68.7083V26.7H64.4483V22.32H60.2483V35.1H51.5483V5.22H60.0083V9.3H64.3283V13.56H68.5883V17.94H72.7883V5.22H81.4283V35.1Z" fill="white"/>
<path d="M184.98 34.86H154.74V4.68H184.98V8.88H163.44V17.46H176.34V21.9H163.44V30.48H184.98V34.86ZM225.104 35.1H203.804V31.02H199.544V26.7H195.224V13.74H199.304V9.48H203.624V5.22H225.104V9.36H208.184V13.62H203.804V26.4H208.004V30.78H216.584V22.44H212.384V18.06H225.104V35.1ZM258.092 35.1H249.632V26.58H236.912V35.1H228.212V13.74H232.292V9.48H236.612V5.22H249.512V9.3H253.832V13.56H258.092V35.1ZM249.512 22.2V13.56H245.252V9.48H240.872V13.8H236.792V22.2H249.512ZM291.081 35.1H282.621V22.32H278.421V26.52H274.101V22.32H269.901V35.1H261.201V5.22H269.661V9.3H273.981V13.68H278.121V9.48H282.441V5.22H291.081V35.1ZM324.609 34.86H294.369V4.68H324.609V8.88H303.069V17.46H315.969V21.9H303.069V30.48H324.609V34.86Z" fill="white"/>
<rect x="4" y="29" width="4" height="4" rx="2" fill="black"/>
<rect x="7.5" y="32.5" width="4" height="4" rx="2" fill="black"/>
<path d="M5 35L3.90587 36.0941C3.63896 36.361 3.31357 36.5621 2.95546 36.6815V36.6815C2.34369 36.8854 1.67597 36.838 1.09918 36.5496L1 36.5" stroke="#E64E4E" stroke-width="3"/>
<path d="M230.488 45.64H229.672V46.504H226.252V48.22H224.512V42.244H229.636V43.06H230.488V45.64ZM228.772 45.64V43.096H226.228V45.64H228.772ZM237.086 47.356H236.27V48.22H231.974V47.404H231.11V43.096H231.926V42.244H236.234V43.06H237.086V47.356ZM235.37 47.356V43.096H232.826V47.356H235.37ZM243.683 48.22H241.991V47.404H241.139V46.516H240.299V47.356H239.447V48.22H237.707V42.244H239.399V44.788H240.239V43.96H241.115V44.788H241.955V42.244H243.683V48.22ZM250.389 48.172H244.341V42.136H250.389V42.976H246.081V44.692H248.661V45.58H246.081V47.296H250.389V48.172ZM256.879 45.64H255.187V46.48H256.027V47.344H256.879V48.22H254.335V47.404H253.483V46.516H252.643V48.22H250.903V42.244H256.027V43.06H256.879V45.64ZM255.163 44.788V43.096H252.619V45.64H254.347V44.788H255.163ZM263.584 48.172H257.536V42.136H263.584V42.976H259.276V44.692H261.856V45.58H259.276V47.296H263.584V48.172ZM270.074 46.504H269.258V47.356H268.406V48.22H264.098V42.244H268.358V43.06H269.222V43.912H270.074V46.504ZM268.358 46.504V43.912H267.506V43.096H265.814V47.356H267.542V46.504H268.358ZM278.207 47.356H277.391V48.22H272.231V42.244H277.355V43.06H278.207V44.788H277.379V45.628H278.207V47.356ZM276.491 44.788V43.096H273.947V44.788H276.491ZM276.491 47.356V45.664H273.947V47.356H276.491ZM284.372 44.788H283.556V45.64H282.704V48.22H280.964V45.688H280.112V44.824H279.248V42.244H280.94V44.788H282.644V42.244H284.372V44.788ZM292.937 43.924H291.245V43.096H289.553V43.924H288.677V46.48H289.517V47.356H291.209V46.528H292.937V47.356H292.121V48.22H288.677V47.404H287.825V46.54H286.961V43.948H287.777V43.096H288.641V42.244H292.085V43.06H292.937V43.924ZM299.535 48.22H297.843V45.664H295.299V48.22H293.559V42.244H295.251V44.788H297.807V42.244H299.535V48.22ZM306.133 47.356H305.317V48.22H301.021V47.404H300.157V43.096H300.973V42.244H305.281V43.06H306.133V47.356ZM304.417 47.356V43.096H301.873V47.356H304.417ZM311.446 48.22H306.322V42.244H308.014V47.344H311.446V48.22ZM319.328 48.22H317.636V46.516H315.092V48.22H313.352V43.948H314.168V43.096H315.032V42.244H317.612V43.06H318.476V43.912H319.328V48.22ZM317.612 45.64V43.912H316.76V43.096H315.884V43.96H315.068V45.64H317.612ZM325.926 48.22H323.382V47.404H322.53V46.516H321.69V48.22H319.95V42.244H321.642V44.788H322.482V43.948H323.334V43.096H324.198V42.244H325.926V43.072H325.11V43.924H324.258V44.788H323.382V45.628H324.21V46.48H325.074V47.344H325.926V48.22Z" fill="#6B6C73"/>
</svg>
